<svg id="controller" xmlns="http://www.w3.org/2000/svg" width="288.62" height="121.46" viewBox="0 0 288.62 121.46">
  <defs>
    <style>
      .cls-1 {
        fill: #ccc;
      }

      .cls-10, .cls-2 {
        fill: #666;
      }

      .cls-3 {
        fill: #d8d8d8;
      }

      .cls-4 {
        fill: #ff7961;
      }

      .cls-5 {
        fill: #0098df;
      }

      .cls-6 {
        fill: #fee94b;
      }

      .cls-7 {
        fill: #7eee80;
      }

      .cls-8 {
        fill: none;
        stroke: #999;
        stroke-width: 2px;
      }

      .cls-9 {
        fill: #4c4c4c;
      }

      .cls-10 {
        opacity: 0.5;
        isolation: isolate;
      }

      .cls-11 {
        fill: #999;
      }

      .cls-12 {
        fill: #ed15ff;
      }

      .cls-13 {
        fill: #a721b2;
      }

      .btn {
        opacity: 0;
      }
    </style>
  </defs>
  <title>controller</title>
  <g id="controller_images" data-name="controller images">
    <path id="controller_bg" data-name="controller bg" class="cls-1" d="M60.76,0H228a60.71,60.71,0,1,1-35.48,110h0l-1.25-1a12.84,12.84,0,0,0-8-2.81H105.54a12.78,12.78,0,0,0-8,2.81l-1.26,1h0A60.73,60.73,0,1,1,60.81,0Z" transform="translate(-0.04 0)"/>
    <g id="action">
      <path id="action_bg" data-name="action bg" class="cls-2" d="M282.82,60.07A54.77,54.77,0,1,1,228,5.35h.05a54.76,54.76,0,0,1,54.77,54.72" transform="translate(-0.04 0)"/>
      <path id="action_bg_2" data-name="action bg 2" class="cls-3" d="M277.4,49.58a17,17,0,0,1-3,23.82l-35,27.28a17,17,0,0,1-20.89-26.8l35-27.25a16.94,16.94,0,0,1,23.79,2.95l0,.05Z" transform="translate(-0.04 0)"/>
      <path id="action_bg_1" data-name="action bg 1" class="cls-3" d="M242.33,23a17,17,0,0,1-3,23.83l-35,27.27a17,17,0,0,1-20.89-26.79l35-27.26a16.94,16.94,0,0,1,23.79,3l0,0Z" transform="translate(-0.04 0)"/>
      <g id="buttons">
        <path id="red" class="cls-4" d="M264.11,45.67a14.41,14.41,0,1,1-14.42,14.4v0A14.41,14.41,0,0,1,264.11,45.67Z" transform="translate(-0.04 0)"/>
        <path id="blue" class="cls-5" d="M228.93,19a14.41,14.41,0,1,1-14.42,14.41A14.41,14.41,0,0,1,228.93,19Z" transform="translate(-0.04 0)"/>
        <path id="yellow" class="cls-6" d="M229.06,72.9a14.41,14.41,0,1,1-14.42,14.41A14.41,14.41,0,0,1,229.06,72.9Z" transform="translate(-0.04 0)"/>
        <path id="green" class="cls-7" d="M193.88,46.29a14.41,14.41,0,1,1-14.42,14.4v0a14.4,14.4,0,0,1,14.42-14.38Z" transform="translate(-0.04 0)"/>
      </g>
      <g id="labels">
        <polygon id="x" class="cls-2" points="227.39 30.29 225.37 30.26 227.91 33.29 225.2 36.58 227.1 36.57 228.89 34.44 230.67 36.57 232.57 36.58 229.86 33.29 232.4 30.26 230.38 30.29 228.89 32.11 227.39 30.29"/>
        <path id="a" class="cls-2" d="M265.08,60.29l-1-2.13-1,2.1Zm-1.91-3.4h1.88l2.84,6.23h-1.53l-.71-1.57h-3.08l-.72,1.58h-1.53Z" transform="translate(-0.04 0)"/>
        <polygon id="y" class="cls-2" points="190.82 57.52 189.12 57.52 191.94 61.02 191.94 63.9 193.43 63.9 193.43 61.01 196.23 57.52 194.53 57.52 192.68 59.84 190.82 57.52"/>
        <path id="b" class="cls-2" d="M229.87,86.67c1.07-.4.62-1.27,0-1.38h-2.5v1.38Zm0,2.68c1-.17,1-1.29,0-1.49h-2.5v1.49Zm-4.13-5.24h4.15c2.59.17,2.76,2.94.18,3.06,3.15.12,2.93,3.23-.18,3.36h-4.15Z" transform="translate(-0.04 0)"/>
      </g>
    </g>
    <g id="d_pad" data-name="d pad">
      <path id="dpad_ring" data-name="dpad ring" class="cls-8" d="M114.24,60A53.08,53.08,0,1,1,61.16,6.88,53.07,53.07,0,0,1,114.24,60h0" transform="translate(-0.04 0)"/>
      <g id="buttons-2">
        <path id="dpad_bg" data-name="dpad bg" class="cls-9" d="M103.63,44.67H76.46V17.57a2.13,2.13,0,0,0-2.11-2.11H48a2.12,2.12,0,0,0-2.12,2.11v27.1H18.69a2.13,2.13,0,0,0-2.11,2.11V73.15a2.13,2.13,0,0,0,2.11,2.11H45.85V102.4a2.12,2.12,0,0,0,2.09,2.15H74.37a2.13,2.13,0,0,0,2.11-2.11V75.3h27.17a2.13,2.13,0,0,0,2.11-2.11V46.82a2.12,2.12,0,0,0-2.09-2.15h0" transform="translate(-0.04 0)"/>
        <path id="right" class="cls-2" d="M23,57.24c-2.69,1.52-2.69,4,0,5.53l10.35,5.9c2.68,1.52,4.88.81,4.88-1.58V52.93c0-2.39-2.2-3.1-4.88-1.58L23,57.24c-2.69,1.52-2.69,4,0,5.53l10.35,5.9c2.68,1.52,4.88.81,4.88-1.58V52.93c0-2.39-2.2-3.1-4.88-1.58Z" transform="translate(-0.04 0)"/>
        <path id="left" class="cls-2" d="M99.25,57.24c2.69,1.52,2.69,4,0,5.53l-10.4,5.9c-2.69,1.52-4.88.81-4.88-1.58V52.93c0-2.39,2.19-3.1,4.88-1.58l10.4,5.89c2.69,1.52,2.69,4,0,5.53l-10.4,5.9c-2.69,1.52-4.88.81-4.88-1.58V52.93c0-2.39,2.19-3.1,4.88-1.58Z" transform="translate(-0.04 0)"/>
        <path id="up" class="cls-2" d="M63.93,22c-1.53-2.68-4-2.68-5.54,0l-5.9,10.39c-1.52,2.69-.81,4.88,1.58,4.88H68.24c2.4,0,3.11-2.19,1.59-4.88L63.93,22c-1.53-2.68-4-2.68-5.54,0l-5.9,10.39c-1.52,2.69-.81,4.88,1.58,4.88H68.24c2.4,0,3.11-2.19,1.59-4.88Z" transform="translate(-0.04 0)"/>
        <path id="down" class="cls-2" d="M63.86,98.23c-1.52,2.69-4,2.69-5.54,0L52.43,87.84C50.9,85.15,51.61,83,54,83H68.18c2.39,0,3.1,2.19,1.58,4.88l-5.9,10.39c-1.52,2.69-4,2.69-5.54,0L52.43,87.84C50.9,85.15,51.61,83,54,83H68.18c2.39,0,3.1,2.19,1.58,4.88Z" transform="translate(-0.04 0)"/>
        <path id="center" class="cls-10" d="M72.27,60a11.11,11.11,0,1,1-11.12-11.1h0A11.12,11.12,0,0,1,72.27,60" transform="translate(-0.04 0)"/>
      </g>
    </g>
    <g id="text_another_game" data-name="text another game">
      <path class="cls-11" d="M107.64,15.46l1.91-8.54h1l1.9,8.54h-1.22l-.34-1.79h-1.67l-.36,1.83Zm3-3L110,9.37h0l-.6,3.09Z" transform="translate(-0.04 0)"/>
      <path class="cls-11" d="M113,15.46V6.92h1.17L116,12.07h0V6.92h1.23v8.54h-1.15l-1.88-5.13h0v5.13Z" transform="translate(-0.04 0)"/>
      <path class="cls-11" d="M118.33,8.93a2.21,2.21,0,0,1,.18-.91,1.9,1.9,0,0,1,1.13-1,2.17,2.17,0,0,1,1.48,0,2.47,2.47,0,0,1,.67.38,2.18,2.18,0,0,1,.46.66,2.21,2.21,0,0,1,.18.91v4.52a2.07,2.07,0,0,1-.18.92,1.94,1.94,0,0,1-.46.64,2.26,2.26,0,0,1-.67.39,2.17,2.17,0,0,1-1.48,0,2,2,0,0,1-.65-.39,1.77,1.77,0,0,1-.48-.64,2.07,2.07,0,0,1-.18-.92Zm1.22,4.52a.84.84,0,0,0,.25.65.88.88,0,0,0,.58.21.83.83,0,0,0,.58-.21.8.8,0,0,0,.25-.65V8.93a.8.8,0,0,0-.25-.65.83.83,0,0,0-.58-.21.88.88,0,0,0-.58.21.84.84,0,0,0-.25.65Z" transform="translate(-0.04 0)"/>
      <path class="cls-11" d="M124.17,15.46V8.07h-1.41V6.92h4V8.07h-1.41v7.39Z" transform="translate(-0.04 0)"/>
      <path class="cls-11" d="M127.35,15.46V6.92h1.23v3.66h1.51V6.92h1.22v8.54h-1.22V11.67h-1.51v3.8Z" transform="translate(-0.04 0)"/>
      <path class="cls-11" d="M132.47,15.46V6.92h3.64V8.07h-2.42v2.51h2.11v1.15h-2.11v2.51h2.42v1.22Z" transform="translate(-0.04 0)"/>
      <path class="cls-11" d="M136.91,15.46V6.92h2c1.44,0,2.16.83,2.16,2.51a3,3,0,0,1-.23,1.28,1.78,1.78,0,0,1-.82.85l1.32,3.9H140l-1.14-3.65h-.73v3.65Zm1.22-7.39v2.66h.7a1.13,1.13,0,0,0,.51-.09.67.67,0,0,0,.3-.25,1,1,0,0,0,.13-.42,2.72,2.72,0,0,0,0-.57,2.72,2.72,0,0,0,0-.57,1.23,1.23,0,0,0-.14-.42,1,1,0,0,0-.86-.34Z" transform="translate(-0.04 0)"/>
      <path class="cls-11" d="M144.18,8.93a2.21,2.21,0,0,1,.18-.91,1.9,1.9,0,0,1,1.13-1A2.21,2.21,0,0,1,147,7a2.41,2.41,0,0,1,.66.38,2,2,0,0,1,.47.66,2.21,2.21,0,0,1,.18.91v.44h-1.22V9a.8.8,0,0,0-.25-.65.91.91,0,0,0-1.16,0,.8.8,0,0,0-.25.65v4.52a.8.8,0,0,0,.25.65.91.91,0,0,0,1.16,0,.8.8,0,0,0,.25-.65V11.84h-1V10.76h2.19v2.69a2.07,2.07,0,0,1-.18.92,1.87,1.87,0,0,1-.47.64,2.14,2.14,0,0,1-2.14.39,2,2,0,0,1-.65-.39,1.77,1.77,0,0,1-.48-.64,2.07,2.07,0,0,1-.18-.92Z" transform="translate(-0.04 0)"/>
      <path class="cls-11" d="M148.81,15.46l1.91-8.54h1l1.91,8.54H152.4l-.34-1.79h-1.67l-.4,1.79Zm3-3-.6-3.09h0l-.6,3.09Z" transform="translate(-0.04 0)"/>
      <path class="cls-11" d="M154.25,15.46V6.92h1.17L157,11.44h0l1.56-4.52h1.19v8.54h-1.23V10.27h0l-1.21,3.67h-.62l-1.2-3.67h0v5.19Z" transform="translate(-0.04 0)"/>
      <path class="cls-11" d="M160.92,15.46V6.92h3.65V8.07h-2.43v2.51h2.11v1.15h-2.11v2.51h2.43v1.22Z" transform="translate(-0.04 0)"/>
      <path class="cls-11" d="M165.36,15.46V6.92h1.83a2.7,2.7,0,0,1,.89.13,1.67,1.67,0,0,1,.7.47,1.72,1.72,0,0,1,.43.78,5,5,0,0,1,.12,1.22,5.61,5.61,0,0,1-.07,1,1.85,1.85,0,0,1-.28.75,1.74,1.74,0,0,1-.67.65,2.21,2.21,0,0,1-1.1.24h-.63v3.33Zm1.22-7.39V11h.59a1.27,1.27,0,0,0,.58-.1.86.86,0,0,0,.3-.3,1.15,1.15,0,0,0,.11-.45V9a1.53,1.53,0,0,0-.11-.47.67.67,0,0,0-.29-.31,1.15,1.15,0,0,0-.55-.11Z" transform="translate(-0.04 0)"/>
      <path class="cls-11" d="M169.25,15.46l1.9-8.54h1l1.91,8.54h-1.22l-.34-1.79h-1.67l-.36,1.83Zm3-3-.6-3.09h0l-.6,3.09Z" transform="translate(-0.04 0)"/>
      <path class="cls-11" d="M174.68,15.46V6.92h1.81a2.13,2.13,0,0,1,1.61.57,2.33,2.33,0,0,1,.54,1.64v4a2.35,2.35,0,0,1-.58,1.77,2.32,2.32,0,0,1-1.67.57Zm1.23-7.39v6.24h.56a.9.9,0,0,0,.73-.26,1.18,1.18,0,0,0,.22-.81V9.13a1.26,1.26,0,0,0-.21-.78.83.83,0,0,0-.74-.28Z" transform="translate(-0.04 0)"/>
    </g>
  </g>
  <g id="hitboxes">
    <g id="hb_action" data-name="hb action">
      <circle id="hb_y" name="y" data-name="hb y" class="btn cls-12" cx="193.19" cy="60.05" r="21.79"/>
      <circle id="hb_x" name="x" data-name="hb x" class="btn cls-12" cx="228.66" cy="33.42" r="21.79"/>
      <circle id="hb_a" name="a" data-name="hb a" class="btn cls-12" cx="264.59" cy="60.05" r="21.79"/>
      <circle id="hb_b" name="b" data-name="hb b" class="btn cls-12" cx="228.66" cy="86.71" r="21.79"/>
    </g>
    <g id="hb_dpad">
      <g id="diag">
        <path id="hb_nw" name="up left" data-parent="hb_n hb_w" class="btn inf cls-13" d="M38.89,51.12,17.54,42.28c-2.79-2.79-2-8.11,1.68-11.82L32.85,16.83c3.71-3.71,9-4.46,11.82-1.67L53.51,36.5c1.63,5.23,2,8.11-1.68,11.82l-1.12,1.12C47,53.15,42.84,52.79,38.89,51.12Z" transform="translate(-0.04 0)"/>
        <path id="hb_se" name="down right" data-parent="hb_s hb_e" class="btn inf cls-13" d="M84.3,67.3l21.35,8.84c2.79,2.79,2,8.11-1.68,11.82L90.34,101.59c-3.71,3.71-9,4.46-11.81,1.67L69.69,81.92c-1.63-5.24-2-8.11,1.67-11.82L72.49,69C76.2,65.27,80.35,65.63,84.3,67.3Z" transform="translate(-0.04 0)"/>
        <path id="hb_ne" name="up right" data-parent="hb_n hb_e" class="btn inf cls-13" d="M69.69,36.5l8.84-21.34c2.78-2.79,8.1-2,11.81,1.67L104,30.46c3.71,3.71,4.47,9,1.68,11.82L84.3,51.12c-5.23,1.63-8.1,2-11.81-1.68l-1.13-1.12C67.65,44.61,68,40.45,69.69,36.5Z" transform="translate(-0.04 0)"/>
        <path id="hb_sw" name="down left" data-parent="hb_s hb_w" class="btn inf cls-13" d="M53.51,81.92l-8.84,21.34c-2.79,2.79-8.11,2-11.82-1.67L19.22,88c-3.71-3.71-4.47-9-1.68-11.82L38.89,67.3c5.23-1.63,8.1-2,11.82,1.68l1.12,1.12C55.54,73.81,55.17,78,53.51,81.92Z" transform="translate(-0.04 0)"/>
      </g>
      <g id="straight">
        <path id="hb_n" name="up" class="btn cls-12" d="M47,42.57,43.86,18.14c0-4.52,4-8.21,8.83-8.21H70.51c4.85,0,8.82,3.69,8.82,8.21L76.15,42.57c0,4.51-8,8.2-12.82,8.2H59.86C55,50.77,47,47.08,47,42.57Z" transform="translate(-0.04 0)"/>
        <path id="hb_e" name="right" class="btn cls-12" d="M78.38,44.8l24.43-3.18c4.52,0,8.21,4,8.21,8.82V68.26c0,4.85-3.69,8.82-8.21,8.82L78.38,73.91c-4.51,0-8.21-8-8.21-12.82V57.62C70.17,52.77,73.87,44.8,78.38,44.8Z" transform="translate(-0.04 0)"/>
        <path id="hb_w" name="left" class="btn cls-12" d="M44.81,73.91,20.38,77.08c-4.51,0-8.21-4-8.21-8.82V50.44c0-4.85,3.7-8.82,8.21-8.82L44.81,44.8c4.52,0,8.21,8,8.21,12.82v3.47C53,65.94,49.33,73.91,44.81,73.91Z" transform="translate(-0.04 0)"/>
        <path id="hb_s" name="down" class="btn cls-12" d="M76.15,76.14l3.18,24.43c0,4.51-4,8.2-8.82,8.2H52.69c-4.86,0-8.83-3.69-8.83-8.2L47,76.14c0-4.52,8-8.21,12.82-8.21h3.47C68.18,67.93,76.15,71.62,76.15,76.14Z" transform="translate(-0.04 0)"/>
      </g>
    </g>
  </g>
</svg>
