<svg xmlns="http://www.w3.org/2000/svg" width="288.73" height="121.42" viewBox="0 0 288.73 121.42">
  <defs>
    <style>
      .cls-1 {
        fill: #ccc;
      }

      .cls-10, .cls-2 {
        fill: #666;
      }

      .cls-3 {
        fill: #d8d8d8;
      }

      .cls-4 {
        fill: #ff7961;
      }

      .cls-5 {
        fill: #0098df;
      }

      .cls-6 {
        fill: #fee94b;
      }

      .cls-7 {
        fill: #7eee80;
      }

      .cls-8 {
        fill: none;
        stroke: #999;
        stroke-width: 2px;
      }

      .cls-9 {
        fill: #4c4c4c;
      }

      .cls-10 {
        opacity: 0.5;
      }

      .cls-11 {
        fill: #999;
      }

      .cls-12 {
        fill: #ed15ff;
      }

      .cls-13 {
        fill: #7c2aff;
      }

      #button_hitbox {
        opacity: 0;
        <!-- -webkit-touch-callout: none;
        -webkit-user-select: none; -->
      }

      .btn {
        pointer-events: none;
      }
    </style>
  </defs>
  <title>controller</title>
  <g id="controller_images">
    <path id="controller_bg" class="cls-1" d="M88.77,30.33H256a60.71,60.71,0,1,1-35.48,110h0l-1.25-1a12.85,12.85,0,0,0-8-2.81H133.55a12.83,12.83,0,0,0-8,2.81l-1.26,1h0a60.73,60.73,0,1,1-35.47-110Z" transform="translate(-28.01 -30.33)"/>
    <g id="action">
      <path id="action_bg" class="cls-2" d="M310.83,90.4a54.77,54.77,0,1,1-54.77-54.72A54.75,54.75,0,0,1,310.83,90.4" transform="translate(-28.01 -30.33)"/>
      <path id="action_bg_2" class="cls-3" d="M305.41,79.91a17,17,0,0,1-3,23.82l-35,27.28a17,17,0,0,1-20.89-26.8l35-27.25a16.95,16.95,0,0,1,23.83,3Z" transform="translate(-28.01 -30.33)"/>
      <path id="action_bg_1" class="cls-3" d="M270.34,53.36a17,17,0,0,1-3,23.83l-35,27.27a17,17,0,0,1-20.89-26.79l35-27.26a16.95,16.95,0,0,1,23.83,3Z" transform="translate(-28.01 -30.33)"/>
      <g id="buttons">
        <path id="red" class="cls-4" d="M292.12,76A14.41,14.41,0,1,1,277.7,90.38,14.41,14.41,0,0,1,292.12,76Z" transform="translate(-28.01 -30.33)"/>
        <path id="blue" class="cls-5" d="M256.94,49.34a14.41,14.41,0,1,1-14.42,14.41A14.41,14.41,0,0,1,256.94,49.34Z" transform="translate(-28.01 -30.33)"/>
        <path id="yellow" class="cls-6" d="M257.07,103.23a14.41,14.41,0,1,1-14.42,14.41A14.41,14.41,0,0,1,257.07,103.23Z" transform="translate(-28.01 -30.33)"/>
        <path id="green" class="cls-7" d="M221.89,76.62A14.41,14.41,0,1,1,207.47,91,14.4,14.4,0,0,1,221.89,76.62Z" transform="translate(-28.01 -30.33)"/>
      </g>
      <g id="labels">
        <polygon id="x" class="cls-2" points="227.43 30.29 225.41 30.26 227.95 33.29 225.24 36.58 227.14 36.57 228.93 34.44 230.71 36.57 232.61 36.58 229.9 33.29 232.44 30.26 230.42 30.29 228.93 32.11 227.43 30.29"/>
        <path id="a" class="cls-2" d="M293.09,90.62l-1-2.13-1,2.1Zm-1.91-3.4h1.88l2.84,6.23h-1.53l-.71-1.57h-3.08l-.72,1.58h-1.53Z" transform="translate(-28.01 -30.33)"/>
        <polygon id="y" class="cls-2" points="190.86 57.52 189.16 57.52 191.98 61.02 191.98 63.9 193.47 63.9 193.47 61.01 196.27 57.52 194.57 57.52 192.72 59.84 190.86 57.52"/>
        <path id="b" class="cls-2" d="M257.88,117c1.07-.4.62-1.27.05-1.38h-2.5V117Zm0,2.68c1-.17,1-1.29,0-1.49h-2.5v1.49Zm-4.13-5.24h4.15c2.59.17,2.76,2.94.18,3.06,3.15.12,2.93,3.23-.18,3.36h-4.15Z" transform="translate(-28.01 -30.33)"/>
      </g>
    </g>
    <g id="d_pad">
      <path id="dpad_ring" class="cls-8" d="M142.25,90.34A53.08,53.08,0,1,1,89.17,37.21a53.1,53.1,0,0,1,53.08,53.13" transform="translate(-28.01 -30.33)"/>
      <g id="buttons-2" data-name="buttons">
        <path id="dpad_bg" class="cls-9" d="M131.64,75H104.47V47.9a2.12,2.12,0,0,0-2.11-2.11H76a2.12,2.12,0,0,0-2.12,2.11V75H46.7a2.12,2.12,0,0,0-2.11,2.11v26.37a2.12,2.12,0,0,0,2.11,2.11H73.86v27.14A2.12,2.12,0,0,0,76,134.88h26.38a2.12,2.12,0,0,0,2.11-2.11V105.63h27.17a2.12,2.12,0,0,0,2.11-2.11V77.15A2.12,2.12,0,0,0,131.64,75" transform="translate(-28.01 -30.33)"/>
        <path id="right" class="cls-2" d="M51,87.57c-2.69,1.52-2.69,4,0,5.53L61.35,99c2.68,1.52,4.88.81,4.88-1.58V83.26c0-2.39-2.2-3.1-4.88-1.58L51,87.57c-2.69,1.52-2.69,4,0,5.53L61.35,99c2.68,1.52,4.88.81,4.88-1.58V83.26c0-2.39-2.2-3.1-4.88-1.58Z" transform="translate(-28.01 -30.33)"/>
        <path id="left" class="cls-2" d="M127.26,87.57c2.69,1.52,2.69,4,0,5.53L116.86,99c-2.69,1.52-4.88.81-4.88-1.58V83.26c0-2.39,2.19-3.1,4.88-1.58l10.4,5.89c2.69,1.52,2.69,4,0,5.53L116.86,99c-2.69,1.52-4.88.81-4.88-1.58V83.26c0-2.39,2.19-3.1,4.88-1.58Z" transform="translate(-28.01 -30.33)"/>
        <path id="up" class="cls-2" d="M91.94,52.31c-1.53-2.68-4-2.68-5.54,0L80.5,62.7c-1.52,2.69-.81,4.88,1.58,4.88H96.25c2.4,0,3.11-2.19,1.59-4.88l-5.9-10.39c-1.53-2.68-4-2.68-5.54,0L80.5,62.7c-1.52,2.69-.81,4.88,1.58,4.88H96.25c2.4,0,3.11-2.19,1.59-4.88Z" transform="translate(-28.01 -30.33)"/>
        <path id="down" class="cls-2" d="M91.87,128.56c-1.52,2.69-4,2.69-5.54,0l-5.89-10.39c-1.53-2.69-.82-4.88,1.58-4.88H96.19c2.39,0,3.1,2.19,1.58,4.88l-5.9,10.39c-1.52,2.69-4,2.69-5.54,0l-5.89-10.39c-1.53-2.69-.82-4.88,1.58-4.88H96.19c2.39,0,3.1,2.19,1.58,4.88Z" transform="translate(-28.01 -30.33)"/>
        <path id="center" class="cls-10" d="M100.28,90.34a11.11,11.11,0,1,1-11.11-11.1,11.11,11.11,0,0,1,11.11,11.1" transform="translate(-28.01 -30.33)"/>
      </g>
    </g>
    <g id="text_another_game">
      <path class="cls-11" d="M135.65,45.79l1.91-8.54h1l1.9,8.54h-1.22L138.9,44h-1.67l-.36,1.83Zm3-3-.6-3.09h0l-.6,3.09Z" transform="translate(-28.01 -30.33)"/>
      <path class="cls-11" d="M141,45.79V37.25h1.17l1.85,5.15h0V37.25h1.23v8.54h-1.15l-1.88-5.13h0v5.13Z" transform="translate(-28.01 -30.33)"/>
      <path class="cls-11" d="M146.34,39.26a2.21,2.21,0,0,1,.18-.91,1.91,1.91,0,0,1,1.13-1,2.14,2.14,0,0,1,.74-.13,2.1,2.1,0,0,1,.74.13,2.23,2.23,0,0,1,.67.38,2.11,2.11,0,0,1,.46.66,2.21,2.21,0,0,1,.18.91v4.52a2.16,2.16,0,0,1-.18.92,1.91,1.91,0,0,1-.46.64,2.26,2.26,0,0,1-.67.39,2.1,2.1,0,0,1-.74.13,2.14,2.14,0,0,1-.74-.13,2,2,0,0,1-.65-.39,1.83,1.83,0,0,1-.48-.64,2.16,2.16,0,0,1-.18-.92Zm1.22,4.52a.83.83,0,0,0,.25.65.86.86,0,0,0,.58.21.84.84,0,0,0,.58-.21.8.8,0,0,0,.25-.65V39.26a.8.8,0,0,0-.25-.65.84.84,0,0,0-.58-.21.86.86,0,0,0-.58.21.83.83,0,0,0-.25.65Z" transform="translate(-28.01 -30.33)"/>
      <path class="cls-11" d="M152.18,45.79V38.4h-1.41V37.25h4V38.4h-1.41v7.39Z" transform="translate(-28.01 -30.33)"/>
      <path class="cls-11" d="M155.36,45.79V37.25h1.23v3.66h1.51V37.25h1.22v8.54H158.1V42h-1.51v3.8Z" transform="translate(-28.01 -30.33)"/>
      <path class="cls-11" d="M160.48,45.79V37.25h3.64V38.4H161.7v2.51h2.11v1.15H161.7v2.51h2.42v1.22Z" transform="translate(-28.01 -30.33)"/>
      <path class="cls-11" d="M164.92,45.79V37.25h2c1.44,0,2.16.83,2.16,2.51a3.08,3.08,0,0,1-.23,1.28,1.82,1.82,0,0,1-.82.85l1.32,3.9H168l-1.14-3.65h-.73v3.65Zm1.22-7.39v2.66h.7a1.23,1.23,0,0,0,.51-.09.68.68,0,0,0,.3-.25,1,1,0,0,0,.13-.42,3.18,3.18,0,0,0,0-.57,3.32,3.32,0,0,0,0-.57,1.1,1.1,0,0,0-.14-.42,1,1,0,0,0-.86-.34Z" transform="translate(-28.01 -30.33)"/>
      <path class="cls-11" d="M172.19,39.26a2.21,2.21,0,0,1,.18-.91,1.91,1.91,0,0,1,1.13-1,2.17,2.17,0,0,1,1.48,0,2.18,2.18,0,0,1,.66.38,2,2,0,0,1,.47.66,2.21,2.21,0,0,1,.18.91v.44h-1.22v-.44a.8.8,0,0,0-.25-.65.91.91,0,0,0-1.16,0,.8.8,0,0,0-.25.65v4.52a.8.8,0,0,0,.25.65.91.91,0,0,0,1.16,0,.8.8,0,0,0,.25-.65V42.17h-1V41.09h2.19v2.69a2.16,2.16,0,0,1-.18.92,1.81,1.81,0,0,1-.47.64,2.21,2.21,0,0,1-.66.39,2.17,2.17,0,0,1-1.48,0,2,2,0,0,1-.65-.39,1.83,1.83,0,0,1-.48-.64,2.16,2.16,0,0,1-.18-.92Z" transform="translate(-28.01 -30.33)"/>
      <path class="cls-11" d="M176.82,45.79l1.91-8.54h1l1.91,8.54h-1.23L180.07,44H178.4L178,45.79Zm3-3-.6-3.09h0l-.6,3.09Z" transform="translate(-28.01 -30.33)"/>
      <path class="cls-11" d="M182.26,45.79V37.25h1.17L185,41.77h0l1.56-4.52h1.19v8.54h-1.23V40.6h0l-1.21,3.67h-.62l-1.2-3.67h0v5.19Z" transform="translate(-28.01 -30.33)"/>
      <path class="cls-11" d="M188.93,45.79V37.25h3.65V38.4h-2.43v2.51h2.11v1.15h-2.11v2.51h2.43v1.22Z" transform="translate(-28.01 -30.33)"/>
      <path class="cls-11" d="M193.37,45.79V37.25h1.83a2.65,2.65,0,0,1,.89.13,1.67,1.67,0,0,1,.7.47,1.76,1.76,0,0,1,.43.78,4.94,4.94,0,0,1,.12,1.22,5.28,5.28,0,0,1-.07,1,1.85,1.85,0,0,1-.28.75,1.74,1.74,0,0,1-.67.65,2.21,2.21,0,0,1-1.1.24h-.63v3.33Zm1.22-7.39v2.9h.59a1.31,1.31,0,0,0,.58-.1.86.86,0,0,0,.3-.3,1.14,1.14,0,0,0,.11-.45c0-.17,0-.37,0-.59s0-.39,0-.57a1.35,1.35,0,0,0-.11-.47.67.67,0,0,0-.29-.31,1.16,1.16,0,0,0-.55-.11Z" transform="translate(-28.01 -30.33)"/>
      <path class="cls-11" d="M197.26,45.79l1.9-8.54h1l1.91,8.54h-1.22L200.51,44h-1.67l-.36,1.83Zm3-3-.6-3.09h0l-.6,3.09Z" transform="translate(-28.01 -30.33)"/>
      <path class="cls-11" d="M202.69,45.79V37.25h1.81a2.14,2.14,0,0,1,1.61.57,2.32,2.32,0,0,1,.54,1.64v4a2.37,2.37,0,0,1-.58,1.77,2.3,2.3,0,0,1-1.67.57Zm1.23-7.39v6.24h.56a.91.91,0,0,0,.73-.26,1.21,1.21,0,0,0,.22-.81V39.46a1.25,1.25,0,0,0-.21-.78.84.84,0,0,0-.74-.28Z" transform="translate(-28.01 -30.33)"/>
    </g>
  </g>
  <g id="button_hitbox">
    <g id="hb_dpad">
      <path id="e" name="right" class="btn cls-12" d="M102.07,85.87c-6.91,2.84-6.91,7.49,0,10.34l26.81,11c6.91,2.85,12.57,1.52,12.57-2.95V77.82c0-4.47-5.66-5.79-12.57-3l-26.81,11c-6.91,2.84-6.91,7.49,0,10.34l26.81,11c6.91,2.85,12.57,1.52,12.57-2.95V77.82c0-4.47-5.66-5.79-12.57-3Z" transform="translate(-28.01 -30.33)"/>
      <path id="w" name="left" class="btn cls-12" d="M76.26,96.21c6.92-2.84,6.92-7.49,0-10.34l-26.8-11C42.54,72,36.89,73.35,36.89,77.82v26.45c0,4.46,5.65,5.78,12.57,3l26.8-11c6.92-2.84,6.92-7.49,0-10.34l-26.8-11C42.54,72,36.89,73.35,36.89,77.82v26.45c0,4.46,5.65,5.78,12.57,3Z" transform="translate(-28.01 -30.33)"/>
      <path id="s" name="down" class="btn cls-12" d="M94.34,104C91.5,97,86.85,97,84,104l-11,26.8c-2.85,6.91-1.52,12.57,2.94,12.57h26.45c4.47,0,5.79-5.66,3-12.57l-11-26.8C91.5,97,86.85,97,84,104l-11,26.8c-2.85,6.91-1.52,12.57,2.94,12.57h26.45c4.47,0,5.79-5.66,3-12.57Z" transform="translate(-28.01 -30.33)"/>
      <path id="n" name="up" class="btn cls-12" d="M84,78.14c2.84,6.91,7.49,6.91,10.33,0l11-26.81c2.85-6.91,1.52-12.57-3-12.57H75.94c-4.46,0-5.79,5.66-3,12.57L84,78.14c2.84,6.91,7.49,6.91,10.33,0l11-26.81c2.85-6.91,1.52-12.57-3-12.57H75.94c-4.46,0-5.79,5.66-3,12.57Z" transform="translate(-28.01 -30.33)"/>
      <path id="sw" name="down left" class="btn cls-13" d="M102,96.51c-6.9-2.88-10.19.41-7.31,7.31l11.17,26.73c2.88,6.91,7.82,10,11,6.81l18.7-18.7c3.16-3.16.09-8.1-6.81-11L102,96.51c-6.9-2.88-10.19.41-7.31,7.31l11.17,26.73c2.88,6.91,7.82,10,11,6.81l18.7-18.7c3.16-3.16.09-8.1-6.81-11Z" transform="translate(-28.01 -30.33)"/>
      <path id="nw" name="up left" class="btn cls-13" d="M76.39,85.57c6.9,2.88,10.19-.41,7.31-7.31L72.53,51.53c-2.88-6.9-7.82-10-11-6.81l-18.7,18.7c-3.16,3.16-.09,8.1,6.8,11L76.39,85.57c6.9,2.88,10.19-.41,7.31-7.31L72.53,51.53c-2.88-6.9-7.82-10-11-6.81l-18.7,18.7c-3.16,3.16-.09,8.1,6.8,11Z" transform="translate(-28.01 -30.33)"/>
      <path id="se" name="down right" class="btn cls-13" d="M83.7,103.82c2.88-6.9-.41-10.19-7.31-7.31L49.66,107.68c-6.91,2.88-10,7.82-6.81,11l18.7,18.7c3.16,3.16,8.1.09,11-6.8L83.7,103.82c2.88-6.9-.41-10.19-7.31-7.31L49.66,107.68c-6.91,2.88-10,7.82-6.81,11l18.7,18.7c3.16,3.16,8.1.09,11-6.8Z" transform="translate(-28.01 -30.33)"/>
      <path id="ne" name="up right" class="btn cls-13" d="M94.64,78.26c-2.88,6.9.41,10.19,7.31,7.31L128.68,74.4c6.9-2.88,10-7.82,6.81-11l-18.7-18.7c-3.16-3.16-8.1-.09-11,6.81L94.64,78.26c-2.88,6.9.41,10.19,7.31,7.31L128.68,74.4c6.9-2.88,10-7.82,6.81-11l-18.7-18.7c-3.16-3.16-8.1-.09-11,6.81Z" transform="translate(-28.01 -30.33)"/>
    </g>
    <g id="hb_action">
      <circle id="hb_y" name="y" class="btn cls-12" cx="193.23" cy="60.05" r="21.79"/>
      <circle id="hb_x" name="x" class="btn cls-12" cx="228.7" cy="33.42" r="21.79"/>
      <circle id="hb_a" name="a" class="btn cls-12" cx="264.63" cy="60.05" r="21.79"/>
      <circle id="hb_b" name="b" class="btn cls-12" cx="228.7" cy="86.71" r="21.79"/>
    </g>
  </g>
</svg>
